#!OML:ASF Y:\EmotionMaleHayes\Project 1\Capture day 1\Session 1\Male1.ASF
:FULLY-SPECIFIED
:DEGREES
237
root -24.6073 15.9655 -0.881656 97.6163 81.8722 80.1086
lowerback 14.8752 2.25065 -10.5964
upperback 7.3272 2.03318 -3.8252
thorax -0.660857 1.05004 1.60079
lowerneck -22.9812 0.315719 0.231136
upperneck 13.0062 0.14603 1.16402
head 7.74693 0.207221 0.372592
rclavicle -2.04748e-014 -5.38706e-014
rhumerus -45.1491 7.95862 -92.5908
rradius 61.7285
rwrist -28.099
rhand -26.8924 -35.2086
rfingers 7.12502
rthumb -0.316118 -65.1881
lclavicle -2.04748e-014 -5.38706e-014
lhumerus -36.9038 -23.3926 94.7332
lradius 64.0791
lwrist 14.652
lhand -34.0933 -25.5752
lfingers 7.12502
lthumb -7.2696 4.27996
rfemur -52.5944 -8.65612 12.2218
rtibia 74.4399
rfoot -23.379 -4.89734
rtoes -7.01125
lfemur 3.81281 -1.04354 -29.9759
ltibia 8.58745
lfoot -29.0177 3.34312
ltoes -12.9674
238
root -24.4708 15.9175 -0.891176 98.6368 81.5109 81.0152
lowerback 15.1738 2.18475 -10.9396
upperback 7.73563 1.93988 -3.82016
thorax -0.366998 0.989075 1.80713
lowerneck -23.0135 0.260161 -0.0773767
upperneck 12.2269 0.144919 1.37019
head 7.49063 0.211739 0.488688
rclavicle -1.07344e-014 1.68967e-014
rhumerus -46.758 7.48693 -91.6497
rradius 60.7126
rwrist -29.0583
rhand -27.8437 -36.4728
rfingers 7.12502
rthumb -1.23495 -66.449
lclavicle -1.07344e-014 1.68967e-014
lhumerus -34.2572 -23.8567 94.7469
lradius 65.67
lwrist 13.781
lhand -33.6737 -26.0637
lfingers 7.12502
lthumb -6.86462 3.80496
rfemur -54.7423 -9.11283 12.6323
rtibia 74.7438
rfoot -23.4097 -4.98256
rtoes -9.1973
lfemur 4.47814 -0.37332 -30.1058
ltibia 8.12903
lfoot -29.0404 1.97409
ltoes -11.8302
239
root -24.3283 15.868 -0.899244 100.853 81.0301 83.2167
lowerback 15.9039 2.16541 -11.127
upperback 7.84875 1.82092 -3.92463
thorax -0.611041 0.948216 1.7973
lowerneck -22.5015 0.128741 -0.176653
upperneck 11.4268 -0.00582468 1.48426
head 7.14356 0.143447 0.51945
rclavicle 7.15625e-015 -2.08724e-014
rhumerus -49.1122 7.08811 -91.004
rradius 60.0238
rwrist -30.3327
rhand -28.7696 -37.6588
rfingers 7.12502
rthumb -2.12916 -67.6279
lclavicle 7.15625e-015 -2.08724e-014
lhumerus -32.3602 -24.826 94.9174
lradius 67.5405
lwrist 12.8041
lhand -33.2253 -26.9214
lfingers 7.12502
lthumb -6.43172 2.96097
rfemur -56.5922 -9.61908 12.8475
rtibia 74.8774
rfoot -23.5542 -5.12441
rtoes -9.29478
lfemur 5.28701 0.485558 -30.2659
ltibia 7.61032
lfoot -28.9595 0.733677
ltoes -13.2062
240
root -24.203 15.8041 -0.916722 102.34 80.3981 84.1779
lowerback 16.1917 2.0475 -11.3371
upperback 7.94042 1.62516 -4.08709
thorax -0.634009 0.858471 1.76629
lowerneck -22.5695 0.0611116 -0.433431
upperneck 10.7734 -0.0215447 1.59523
head 6.93855 0.136014 0.593673
rclavicle -6.16232e-015 3.07122e-014
rhumerus -51.3106 7.27897 -90.4926
rradius 59.581
rwrist -31.343
rhand -29.4882 -39.1222
rfingers 7.12502
rthumb -2.82318 -69.0832
lclavicle -6.16232e-015 3.07122e-014
lhumerus -30.0828 -25.6595 94.9049
lradius 69.4486
lwrist 11.4706
lhand -32.7701 -27.7304
lfingers 7.12502
lthumb -5.99227 2.16487
rfemur -59.2381 -10.0498 12.892
rtibia 75.2396
rfoot -23.6746 -5.31217
rtoes -8.22742
lfemur 5.39615 1.41055 -30.6942
ltibia 7.28334
lfoot -28.7809 -0.45854
ltoes -15.0153
241
root -24.059 15.7498 -0.916699 107.465 79.174 89.2366
lowerback 16.9229 1.74129 -12.1526
upperback 8.10911 1.0602 -4.08351
thorax -0.755378 0.57964 2.29952
lowerneck -22.596 -0.0150443 -0.832025
upperneck 10.3112 -0.000118248 1.6432
head 6.79005 0.134622 0.674499
rclavicle 1.64991e-014 7.65321e-014
rhumerus -53.9417 8.02487 -90.0081
rradius 59.5182
rwrist -31.8512
rhand -30.0395 -39.5711
rfingers 7.12502
rthumb -3.35561 -69.5244
lclavicle 1.64991e-014 7.65321e-014
lhumerus -27.9027 -26.3581 95.0503
lradius 71.3993
lwrist 10.1461
lhand -32.5531 -28.2047
lfingers 7.12502
lthumb -5.78276 1.69635
rfemur -60.8496 -11.3641 12.3321
rtibia 74.9969
rfoot -23.674 -6.10377
rtoes -8.66691
lfemur 6.12846 1.82491 -31.4556
ltibia 6.9404
lfoot -28.4998 -2.51174
ltoes -13.9658
242
root -23.9105 15.6923 -0.92486 109.439 78.0261 90.9175
lowerback 17.4847 1.54638 -12.9684
upperback 8.10269 0.619411 -4.15885
thorax -0.977695 0.368745 2.73446
lowerneck -23.1023 -0.0744292 -0.917598
upperneck 10.4551 -0.0234974 1.47429
head 6.91731 0.106141 0.631637
rclavicle 1.59028e-014 5.99336e-014
rhumerus -56.8955 9.14819 -89.8366
rradius 59.7763
rwrist -31.7445
rhand -30.3494 -39.3393
rfingers 7.12502
rthumb -3.65488 -69.2877
lclavicle 1.59028e-014 5.99336e-014
lhumerus -25.9237 -27.2209 95.0549
lradius 73.3824
lwrist 8.8655
lhand -33.3428 -28.8932
lfingers 7.12502
lthumb -6.54511 0.985615
rfemur -62.8095 -12.1608 11.759
rtibia 75.0867
rfoot -23.8653 -6.9731
rtoes -8.3643
lfemur 6.80466 1.80305 -32.5045
ltibia 6.30815
lfoot -28.2372 -3.61266
ltoes -12.4755
243
root -23.7568 15.6366 -0.93213 110.332 77.782 91.506
lowerback 17.7977 1.3572 -13.0799
upperback 8.24436 0.342042 -4.14109
thorax -0.941319 0.231464 2.86195
lowerneck -24.2095 -0.0161201 -0.659553
upperneck 10.8415 0.0164073 1.25969
head 7.21881 0.121231 0.528566
rclavicle 2.127e-014 6.5102e-014
rhumerus -59.4952 10.5059 -90.0386
rradius 59.9216
rwrist -30.755
rhand -30.4123 -38.865
rfingers 7.12502
rthumb -3.71557 -68.8124
lclavicle 2.127e-014 6.5102e-014
lhumerus -23.5134 -28.1117 94.4465
lradius 75.4626
lwrist 8.19802
lhand -33.5062 -29.0826
lfingers 7.12502
lthumb -6.70286 0.791265
rfemur -64.6412 -12.0243 12.0712
rtibia 75.3226
rfoot -24.2755 -7.92923
rtoes -6.95359
lfemur 7.43342 2.19741 -32.4651
ltibia 5.6264
lfoot -27.9127 -4.45409
ltoes -12.4083
244
root -23.5891 15.5853 -0.940839 110.814 78.0811 91.7898
lowerback 17.8112 1.27145 -12.5978
upperback 8.51057 0.347039 -3.95343
thorax -0.670753 0.222009 2.79933
lowerneck -24.9072 -0.0977783 -0.931474
upperneck 10.9465 -0.00706656 1.325
head 7.36322 0.108614 0.592954
rclavicle -2.06239e-014 -7.98617e-014
rhumerus -62.032 11.7789 -90.1807
rradius 59.7472
rwrist -29.1292
rhand -30.3704 -36.673
rfingers 7.12502
rthumb -3.67514 -66.621
lclavicle -2.06239e-014 -7.98617e-014
lhumerus -21.0866 -29.3258 93.9492
lradius 77.4269
lwrist 7.30211
lhand -33.1754 -28.681
lfingers 7.12502
lthumb -6.38354 1.20283
rfemur -66.0245 -11.5436 12.8975
rtibia 75.2786
rfoot -24.4967 -9.05215
rtoes -6.67548
lfemur 8.08813 3.2795 -31.5834
ltibia 5.21148
lfoot -27.7316 -5.58739
ltoes -13.3239
245
root -23.3983 15.5343 -0.96011 111.349 77.7771 92.2877
lowerback 18.0606 1.20837 -12.6032
upperback 8.63528 0.251918 -3.77694
thorax -0.649171 0.169829 3.00666
lowerneck -25.2846 -0.140063 -1.40079
upperneck 11.1289 0.106291 1.26568
head 7.4815 0.136071 0.664324
rclavicle -7.1081e-015 1.60006e-014
rhumerus -64.9844 13.3093 -90.4765
rradius 59.8911
rwrist -27.263
rhand -30.1694 -35.3906
rfingers 7.12502
rthumb -3.48109 -65.3419
lclavicle -7.1081e-015 1.60006e-014
lhumerus -19.1839 -30.5328 93.7894
lradius 79.2951
lwrist 6.46159
lhand -32.2779 -28.83
lfingers 7.12502
lthumb -5.51707 1.07821
rfemur -66.944 -11.723 12.9754
rtibia 75.2192
rfoot -24.6502 -9.92257
rtoes -6.06512
lfemur 9.44085 2.75963 -31.985
ltibia 4.00888
lfoot -27.4954 -5.10147
ltoes -14.2192
246
root -23.201 15.4766 -0.975398 113.265 77.3366 94.1775
lowerback 18.3329 0.912841 -12.498
upperback 8.63123 -0.151694 -3.63814
thorax -0.740587 -0.0231455 3.17038
lowerneck -25.5136 -0.0679908 -1.81102
upperneck 11.4213 0.358722 1.16958
head 7.61147 0.22565 0.732737
rclavicle -6.53505e-015 2.48481e-017
rhumerus -68.2738 15.1372 -91.2485
rradius 60.0621
rwrist -25.1677
rhand -30.3851 -34.0591
rfingers 7.12502
rthumb -3.68931 -64.0069
lclavicle -6.53505e-015 2.48481e-017
lhumerus -17.6934 -31.5078 93.5252
lradius 81.1214
lwrist 5.86641
lhand -32.1604 -29.4122
lfingers 7.12502
lthumb -5.4036 0.498905
rfemur -67.6683 -12.2722 12.9693
rtibia 75.2896
rfoot -24.7933 -10.8125
rtoes -5.21944
lfemur 10.4901 2.73108 -32.1682
ltibia 3.38183
lfoot -27.0554 -5.64313
ltoes -14.5029
247
root -23.0038 15.4178 -0.982784 115.883 77.3431 96.6614
lowerback 18.5154 0.747022 -12.1212
upperback 8.54334 -0.354431 -3.25067
thorax -0.916064 -0.11927 3.41645
lowerneck -26.0972 -0.0802744 -1.84232
upperneck 12.0563 0.437188 0.742307
head 7.91789 0.211306 0.60796
rclavicle -2.71341e-014 -4.05521e-014
rhumerus -71.7123 16.609 -91.9212
rradius 60.6327
rwrist -23.659
rhand -30.3911 -33.0249
rfingers 7.12502
rthumb -3.69514 -62.9726
lclavicle -2.71341e-014 -4.05521e-014
lhumerus -16.3858 -32.7291 93.3783
lradius 82.8571
lwrist 5.52435
lhand -33.0009 -30.0138
lfingers 7.12502
lthumb -6.21504 -0.124924
rfemur -68.3827 -12.5813 13.512
rtibia 75.4146
rfoot -24.5753 -11.7659
rtoes -5.82764
lfemur 11.4861 2.63151 -31.7392
ltibia 2.66153
lfoot -26.5516 -6.15819
ltoes -15.4369
248
root -22.7995 15.3631 -0.992597 118.463 77.133 99.0423
lowerback 18.5527 0.355341 -11.697
upperback 8.46844 -0.812161 -3.1249
thorax -0.969963 -0.335994 3.40259
lowerneck -26.7125 0.0807805 -1.63746
upperneck 12.6774 0.662324 0.369378
head 8.22612 0.2819 0.483689
rclavicle 3.72721e-014 4.96962e-014
rhumerus -75.0092 18.3404 -93.1404
rradius 61.4256
rwrist -23.2442
rhand -30.2573 -31.6935
rfingers 7.12502
rthumb -3.56597 -61.6434
lclavicle 3.72721e-014 4.96962e-014
lhumerus -15.1457 -33.8946 92.5234
lradius 84.5733
lwrist 5.49969
lhand -33.79 -30.4358
lfingers 7.12502
lthumb -6.97683 -0.570771
rfemur -69.0535 -13.0129 13.8224
rtibia 75.8958
rfoot -24.3338 -12.4779
rtoes -5.83448
lfemur 12.4379 2.60079 -31.484
ltibia 1.99601
lfoot -25.9778 -6.80171
ltoes -16.2275
249
root -22.5827 15.3103 -1.00926 120.896 76.6534 101.248
lowerback 18.5023 -0.130882 -11.3985
upperback 8.38575 -1.39903 -3.07663
thorax -0.967261 -0.619095 3.39655
lowerneck -27.2684 0.309138 -1.45637
upperneck 13.2575 0.976726 0.0535081
head 8.5135 0.397895 0.395513
rclavicle -3.77691e-015 6.40087e-014
rhumerus -78.4241 20.2374 -94.7588
rradius 62.4712
rwrist -23.3417
rhand -30.1857 -30.8846
rfingers 7.12502
rthumb -3.49678 -60.8357
lclavicle -3.77691e-015 6.40087e-014
lhumerus -14.1654 -35.1174 91.421
lradius 86.2447
lwrist 5.67676
lhand -34.373 -30.9412
lfingers 7.12502
lthumb -7.53956 -1.09561
rfemur -69.5881 -13.7405 13.8836
rtibia 76.6278
rfoot -24.3899 -13.0754
rtoes -3.75595
lfemur 13.118 2.78388 -31.384
ltibia 1.81279
lfoot -25.137 -8.24638
ltoes -14.9183
250
root -22.3551 15.264 -1.02818 123.674 76.575 103.861
lowerback 18.4628 -0.524527 -10.7638
upperback 8.30983 -1.81901 -2.80424
thorax -1.0018 -0.821087 3.41247
lowerneck -27.8508 0.495412 -1.38491
upperneck 13.8515 1.27974 -0.265586
head 8.81333 0.499575 0.322823
rclavicle 3.50855e-014 4.17448e-014
rhumerus -81.9524 21.8823 -96.3752
rradius 63.7677
rwrist -23.5502
rhand -30.1546 -30.7259
rfingers 7.12502
rthumb -3.46677 -60.6775
lclavicle 3.50855e-014 4.17448e-014
lhumerus -13.3965 -36.3315 90.471
lradius 87.7889
lwrist 5.99439
lhand -35.0287 -32.2503
lfingers 7.12502
lthumb -8.17251 -2.42837
rfemur -69.7867 -14.3719 14.4726
rtibia 77.2598
rfoot -24.1393 -13.8222
rtoes -2.57034
lfemur 13.9084 2.80826 -30.7983
ltibia 1.58016
lfoot -24.1731 -9.45467
ltoes -14.2647
